<svg xmlns="http://www.w3.org/2000/svg" width="30.323" height="30.323" viewBox="0 0 30.323 30.323">
  <g id="Group_726" data-name="Group 726" transform="translate(-236.2 -2839)">
    <g id="Ellipse_2" data-name="Ellipse 2" transform="translate(236.2 2839)" fill="none" stroke="#fff" stroke-width="1">
      <circle cx="15.162" cy="15.162" r="15.162" stroke="none"/>
      <circle cx="15.162" cy="15.162" r="14.662" fill="none"/>
    </g>
    <path id="instagram" d="M8.76,0H2.7A2.7,2.7,0,0,0,0,2.7V8.76a2.7,2.7,0,0,0,2.7,2.7H8.76a2.7,2.7,0,0,0,2.7-2.7V2.7A2.7,2.7,0,0,0,8.76,0Zm2.022,8.76A2.024,2.024,0,0,1,8.76,10.782H2.7A2.024,2.024,0,0,1,.674,8.76V4.717H2.835a3.161,3.161,0,0,0-.308,1.348,3.2,3.2,0,0,0,6.4,0,3.161,3.161,0,0,0-.308-1.348h2.161Zm-2.527-2.7A2.527,2.527,0,1,1,5.728,3.538,2.53,2.53,0,0,1,8.255,6.065ZM8.189,4.043a3.157,3.157,0,0,0-4.922,0H.674V2.7A2.024,2.024,0,0,1,2.7.674H8.76A2.024,2.024,0,0,1,10.782,2.7V4.043ZM9.74,1.834v.875a.367.367,0,0,1-.365.366H8.453a.368.368,0,0,1-.367-.366V1.834a.367.367,0,0,1,.367-.366h.922a.367.367,0,0,1,.365.366Z" transform="translate(245.954 2848.434)" fill="#fff"/>
  </g>
</svg>
