<svg xmlns="http://www.w3.org/2000/svg" width="30.323" height="30.323" viewBox="0 0 30.323 30.323">
  <g id="Group_725" data-name="Group 725" transform="translate(-348 -2841.587)">
    <g id="Ellipse_3" data-name="Ellipse 3" transform="translate(348 2841.587)" fill="none" stroke="#fff" stroke-width="1">
      <circle cx="15.162" cy="15.162" r="15.162" stroke="none"/>
      <circle cx="15.162" cy="15.162" r="14.662" fill="none"/>
    </g>
    <path id="iconfinder_SocialMedia_Twitter-Outline_2959740" d="M9.628,19.333a2.19,2.19,0,0,1,1.536.65,4.3,4.3,0,0,0,1.3-.471,1.831,1.831,0,0,1-.888,1.093h.007a3.072,3.072,0,0,0,1.172-.316s-.131.357-1.02,1.036h0A5.821,5.821,0,0,1,7.9,26.961a6.415,6.415,0,0,1-2.1.361,6.071,6.071,0,0,1-3.237-.913c.165.016.313.016.461.016a3.547,3.547,0,0,0,2.642-.893H5.594a1.973,1.973,0,0,1-1.91-1.411.732.732,0,0,0,.409.1,2.325,2.325,0,0,0,.549-.077,2.015,2.015,0,0,1-1.669-1.99,1.519,1.519,0,0,0,.79.238.8.8,0,0,0,.138-.011,1.919,1.919,0,0,1-.63-2.638A6.027,6.027,0,0,0,7.55,21.8h.036A2.06,2.06,0,0,1,8.9,19.481a1.744,1.744,0,0,1,.718-.147m2.121,1.995h0M13.475,18l-1.419.956a2.687,2.687,0,0,1-.7.279,2.947,2.947,0,0,0-1.737-.583h0a2.464,2.464,0,0,0-1.02.211A2.785,2.785,0,0,0,6.862,21.04a5.45,5.45,0,0,1-3.049-1.747l-.625-.7-.516.772A2.565,2.565,0,0,0,2.3,21.124l-.041,1a2.693,2.693,0,0,0,.624,1.757l.11.411a2.748,2.748,0,0,0,.917,1.358,4.25,4.25,0,0,1-.892.091c-.131,0-.266-.005-.4-.016L.1,25.526l2.035,1.435A6.807,6.807,0,0,0,5.794,28a7.171,7.171,0,0,0,2.346-.4,6.186,6.186,0,0,0,3.478-2.939,7.031,7.031,0,0,0,.831-3.017,3.049,3.049,0,0,0,.981-1.131l.562-1.534-.768.343Z" transform="translate(355.9 2833.587)" fill="#fff"/>
  </g>
</svg>
